# AST/ASF file generated using VICON BodyLanguage
# -----------------------------------------------
:version 1.10
:name VICON
:units
  mass 1.0
  length 0.45
  angle deg
:documentation
   .ast/.asf automatically generated from VICON data using
   VICON BodyBuilder and BodyLanguage model FoxedUp or BRILLIANT.MOD
:root
   order TX TY TZ RX RY RZ
   axis XYZ
   position 0 0 0  
   orientation 0 0 0 
:bonedata
  begin
     id 1 
     name lhipjoint
     direction 0.822369 -0.411937 0.392449 
     length 3.8167 
     axis 0 0 0  XYZ
  end
  begin
     id 2 
     name lfemur
     direction 0.34202 -0.939693 0  
     length 6.16791  
     axis 0 0 20  XYZ
    dof rx ry rz
    limits (-160.0 20.0)
           (-70.0 70.0)
           (-60.0 70.0)
  end
  begin
     id 3 
     name ltibia
     direction 0.34202 -0.939693 0   
     length 7.07101   
     axis 0 0 20   XYZ
    dof rx
    limits (-10.0 170.0)
  end
  begin
     id 4 
     name lfoot
     direction 0.028254 -0.0776273 0.996582   
     length 1.66799   
     axis -90 7.62852e-016 20   XYZ
    dof rx rz
    limits (-45.0 90.0)
           (-70.0 20.0)
  end
  begin
     id 5 
     name ltoes
     direction 1.53483e-011 -4.21688e-011 1   
     length 0.851674   
     axis -90 7.62852e-016 20   XYZ
    dof rx
    limits (-90.0 20.0)
  end
  begin
     id 6 
     name rhipjoint
     direction -0.822466 -0.411836 0.392353   
     length 3.81764  
     axis 0 0 0  XYZ 
  end
  begin
     id 7 
     name rfemur
     direction -0.34202 -0.939693 0   
     length 6.28636   
     axis 0 0 -20   XYZ
    dof rx ry rz
    limits (-160.0 20.0)
           (-70.0 70.0)
           (-70.0 60.0)
  end
  begin
     id 8 
     name rtibia
     direction -0.34202 -0.939693 0   
     length 6.85621   
     axis 0 0 -20   XYZ
    dof rx
    limits (-10.0 170.0)
 end
 begin
     id 9 
     name rfoot
     direction -0.0553036 -0.151945 0.98684   
     length 1.57293  
     axis -90 -7.62852e-016 -20   XYZ
    dof rx rz
    limits (-45.0 90.0)
           (-20.0 70.0)
  end
  begin
     id 10 
     name rtoes
     direction -1.53592e-011 -4.21964e-011 1   
     length 0.802812   
     axis -90 -7.62852e-016 -20   XYZ
    dof rx
    limits (-90.0 20.0)
  end
  begin
     id 11 
     name lowerback
     direction 0.00654913 0.996475 -0.0836396   
     length 1.97212   
     axis 0 0 0   XYZ
    dof rx ry rz
    limits (-20.0 45.0)
           (-30.0 30.0)
           (-30.0 30.0)
  end
  begin
     id 12 
     name upperback
     direction 0.0111875 0.994527 0.103877   
     length 1.89704   
     axis 0 0 0   XYZ
    dof rx ry rz
    limits (-20.0 45.0)
           (-30.0 30.0)
           (-30.0 30.0)
  end
  begin
     id 13 
     name thorax
     direction 0.00473652 0.989004 0.147814   
     length 1.94516   
     axis 0 0 0   XYZ
    dof rx ry rz
    limits (-20.0 45.0)
           (-30.0 30.0)
           (-30.0 30.0)
  end
  begin
     id 14 
     name lowerneck
     direction -0.00925808 0.999011 0.0434791   
     length 1.81771   
     axis 0 0 0   XYZ
    dof rx ry rz
    limits (-20.0 45.0)
           (-30.0 30.0)
           (-30.0 30.0)
  end
  begin
     id 15 
     name upperneck
     direction 0.00451595 0.964412 -0.264365   
     length 1.80434   
     axis 0 0 0   XYZ
    dof rx ry rz
    limits (-20.0 45.0)
           (-30.0 30.0)
           (-30.0 30.0)
  end
  begin
     id 16
     name head
     direction -0.00110849 0.995756 -0.0920241  
     length 1.84006  
     axis 0 0 0   XYZ
    dof rx ry rz
    limits (-20.0 45.0)
           (-30.0 30.0)
           (-30.0 30.0)
  end
  begin
     id 17 
     name lclavicle
     direction 0.921253 0.385213 0.0538957  
     length 3.67415  
     axis 0 0 0   XYZ
    dof ry rz
    limits (-20.0 10.0)
           (0.0 20.0)
  end
  begin
     id 18 
     name lhumerus
     direction 1 -4.48961e-011 6.73441e-028   
     length 4.32712   
     axis 180 -30 -90   XYZ
    dof rx ry rz
    limits (-60.0 90.0)
           (-90.0 90.0)
           (-90.0 90.0)
  end
  begin
     id 19
     name lradius
     direction 1 -4.48985e-011 -9.53507e-028   
     length 3.28587   
     axis 180 -30 -90   XYZ
    dof rx
    limits (-10.0 170.0)
  end
  begin
     id 20
     name lwrist
     direction 1 -4.48951e-011 -4.67472e-027   
     length 1.64293   
     axis 1.65735e-015 90 90   XYZ
    dof ry
    limits (-180.0 0.0)
 end
  begin
     id 21 
     name lhand
     direction 1 -4.48946e-011 -9.34945e-027   
     length 0.433158   
     axis 5.96574e-015 90 90   XYZ
    dof rx rz
    limits (-90.0 90.0)
           (-45.0 45.0)
  end
  begin
     id 22 
     name lfingers
     direction 1 -4.48882e-011 -1.86989e-026   
     length 0.349224   
     axis 1.19315e-014 90 90   XYZ
    dof rx
    limits (0.0 90.0)
  end
  begin
     id 23
     name lthumb
     direction 0.707107 -6.3493e-011 0.707107   
     length 0.501417   
     axis -90 45 2.85299e-015   XYZ
    dof rx rz
    limits (-45.0 45.0)
           (-45.0 45.0)
  end
  begin
     id 24 
     name rclavicle
     direction -0.884378 0.46502 -0.0403866   
     length 3.50218  
     axis 0 0 0   XYZ 
    dof ry rz
    limits (-10.0 20.0)
           (-20.0 0.0)
  end
  begin
     id 25 
     name rhumerus
     direction -1 -4.48964e-011 1.58188e-027  
     length 4.29104   
     axis 180 30 90   XYZ
    dof rx ry rz
    limits (-90.0 60.0)
           (-90.0 90.0)
           (-90.0 90.0)
  end
  begin
     id 26 
     name rradius
     direction -1 -4.48978e-011 -1.9722e-027   
     length 3.2272   
     axis 180 30 90   XYZ
    dof rx
    limits (-10.0 170.0)
  end
  begin
     id 27 
     name rwrist
     direction -1 -4.48969e-011 -4.67472e-027   
     length 1.6136   
     axis 1.65735e-015 -90 -90   XYZ
    dof ry
    limits (-180.0 0.0)
  end
  begin
     id 28
     name rhand
     direction -1 -4.48846e-011 -9.34945e-027   
     length 0.543623   
     axis 5.96574e-015 -90 -90   XYZ
    dof rx rz
    limits (-90.0 90.0)
           (-45.0 45.0)
  end
  begin
     id 29
     name rfingers
     direction -1 -4.49074e-011 -1.86989e-026   
     length 0.438283   
     axis 1.19315e-014 -90 -90   XYZ
    dof rx
    limits (0.0 90.0)
  end
  begin
     id 30
     name rthumb
     direction -0.707107 -6.34834e-011 0.707107   
     length 0.629289   
     axis -90 -45 -2.85299e-015   XYZ
    dof rx rz
    limits (-45.0 45.0)
           (-45.0 45.0)
  end
:hierarchy
  begin
    root lhipjoint rhipjoint lowerback
    lhipjoint lfemur
    lfemur ltibia
    ltibia lfoot
    lfoot ltoes
    rhipjoint rfemur
    rfemur rtibia
    rtibia rfoot
    rfoot rtoes
    lowerback upperback
    upperback thorax
    thorax lowerneck lclavicle rclavicle
    lowerneck upperneck
    upperneck head
    lclavicle lhumerus
    lhumerus lradius
    lradius lwrist
    lwrist lhand lthumb
    lhand lfingers
    rclavicle rhumerus
    rhumerus rradius
    rradius rwrist
    rwrist rhand rthumb
    rhand rfingers
  end

#!OML:ASF H:\GeneralSubjects\Female5\Project 1\Capture day 1\Session 1\Female5.ASF
:FULLY-SPECIFIED
:DEGREES
120
root -26.1972 16.3998 4.96466 -27.9749 82.9231 -34.232
lowerback 7.01664 1.22768 3.21456
upperback -9.70331 2.52658 1.03195
thorax -14.5697 1.02622 -1.16976
lowerneck -15.8495 2.36831 3.82704
upperneck 44.3773 5.31964 -0.671747
head 20.2546 3.4587 0.393427
rclavicle -9.85227e-015 -7.57867e-015
rhumerus -53.9686 19.4787 -89.1774
rradius 39.0786
rwrist -13.5126
rhand -24.5554 -20.2432
rfingers 7.12502
rthumb 1.94098 -50.2141
lclavicle -9.85227e-015 -7.57867e-015
lhumerus -44.9705 -1.41875 70.4312
lradius 30.5105
lwrist -16.2678
lhand -26.6688 31.7567
lfingers 7.12502
lthumb -0.100243 61.7364
rfemur -2.20732 15.0933 35.3775
rtibia 3.13102
rfoot -8.19513 -18.2618
rtoes -27.586
lfemur -5.4079 -17.3763 -25.7058
ltibia 8.91962
lfoot -23.644 -3.18861
ltoes -14.9628
121
root -26.182 16.4019 4.95901 -27.4754 82.9137 -34.19
lowerback 6.76391 1.2313 3.05684
upperback -9.791 2.51098 1.04809
thorax -14.5207 1.04152 -1.05474
lowerneck -15.6298 2.38022 4.0247
upperneck 44.3739 5.3441 -0.790698
head 20.2033 3.49288 0.29811
rclavicle 9.405e-015 -2.36057e-015
rhumerus -53.1333 20.3022 -89.3904
rradius 39.1367
rwrist -13.5662
rhand -24.6619 -20.4722
rfingers 7.12502
rthumb 1.83815 -50.4441
lclavicle 9.405e-015 -2.36057e-015
lhumerus -43.6759 -2.3448 71.2014
lradius 30.5597
lwrist -16.4834
lhand -26.6049 31.8409
lfingers 7.12502
lthumb -0.038486 61.8207
rfemur -1.43976 16.4353 35.4562
rtibia 1.08095
rfoot -7.90445 -19.5931
rtoes -26.5093
lfemur -4.57881 -18.9037 -25.8898
ltibia 6.81294
lfoot -25.1313 -2.42339
ltoes -14.7948
122
root -26.1744 16.3933 4.95328 -26.9409 82.9835 -34.1572
lowerback 6.53444 1.21928 2.89213
upperback -9.88823 2.4723 1.03869
thorax -14.4978 1.04433 -0.960845
lowerneck -15.4685 2.37782 4.15088
upperneck 44.3985 5.33718 -0.833588
head 20.1803 3.5121 0.249614
rclavicle -9.85848e-015 -4.89507e-015
rhumerus -52.2355 20.9868 -89.5362
rradius 39.0721
rwrist -13.3976
rhand -24.7785 -20.6204
rfingers 7.12502
rthumb 1.72551 -50.5932
lclavicle -9.85848e-015 -4.89507e-015
lhumerus -42.3119 -3.21133 71.9452
lradius 30.5428
lwrist -16.8282
lhand -26.4942 31.8972
lfingers 7.12502
lthumb 0.0683915 61.8769
rfemur -0.826663 17.8477 35.4875
rtibia -0.781347
rfoot -7.77511 -21.1447
rtoes -25.4275
lfemur -3.89169 -20.5071 -26.093
ltibia 4.83398
lfoot -26.6515 -1.70014
ltoes -14.464
123
root -26.1744 16.3781 4.94778 -26.3597 83.1055 -34.0907
lowerback 6.35304 1.2008 2.71021
upperback -10.003 2.42452 1.01327
thorax -14.5268 1.04273 -0.875441
lowerneck -15.2973 2.35311 4.23222
upperneck 44.4365 5.30156 -0.846225
head 20.1584 3.51778 0.218579
rclavicle -1.50393e-014 -1.16289e-014
rhumerus -51.3483 21.5064 -89.6263
rradius 38.9104
rwrist -12.9644
rhand -24.9474 -20.7054
rfingers 7.12502
rthumb 1.56236 -50.6794
lclavicle -1.50393e-014 -1.16289e-014
lhumerus -40.975 -3.99684 72.6701
lradius 30.5538
lwrist -17.1268
lhand -26.352 31.9782
lfingers 7.12502
lthumb 0.205741 61.9578
rfemur -0.373389 19.4313 35.4828
rtibia -2.36585
rfoot -7.82498 -22.9016
rtoes -24.5187
lfemur -3.34294 -22.1507 -26.2824
ltibia 3.03009
lfoot -28.159 -1.03129
ltoes -13.9362
124
root -26.1802 16.3606 4.94223 -25.7004 83.2419 -33.9204
lowerback 6.23547 1.18617 2.53046
upperback -10.1053 2.38209 0.976581
thorax -14.5808 1.04165 -0.80655
lowerneck -15.1476 2.31236 4.27913
upperneck 44.4527 5.24941 -0.866304
head 20.1257 3.50829 0.186029
rclavicle -2.74571e-015 -2.88238e-015
rhumerus -50.4706 21.8638 -89.6604
rradius 38.7119
rwrist -12.2981
rhand -25.15 -20.8138
rfingers 7.12502
rthumb 1.36673 -50.7892
lclavicle -2.74571e-015 -2.88238e-015
lhumerus -39.6999 -4.6621 73.383
lradius 30.6915
lwrist -17.2537
lhand -26.1814 32.0965
lfingers 7.12502
lthumb 0.370569 62.0759
rfemur -0.0591304 21.1863 35.4501
rtibia -3.628
rfoot -8.02196 -24.7661
rtoes -23.8799
lfemur -2.88661 -23.8257 -26.4507
ltibia 1.42264
lfoot -29.6556 -0.428715
ltoes -13.2182
125
root -26.1896 16.3448 4.93621 -24.9714 83.351 -33.6263
lowerback 6.18527 1.1849 2.3789
upperback -10.1827 2.36079 0.935281
thorax -14.6461 1.0461 -0.763972
lowerneck -15.0061 2.25859 4.30172
upperneck 44.4282 5.1893 -0.916081
head 20.0672 3.48515 0.139823
rclavicle -1.1865e-014 -1.63003e-014
rhumerus -49.6393 22.0831 -89.662
rradius 38.5476
rwrist -11.502
rhand -25.3592 -20.9705
rfingers 7.12502
rthumb 1.16469 -50.9471
lclavicle -1.1865e-014 -1.63003e-014
lhumerus -38.5592 -5.20938 74.1056
lradius 31.0539
lwrist -17.1393
lhand -25.9689 32.2461
lfingers 7.12502
lthumb 0.575795 62.2251
rfemur 0.137146 23.0015 35.3998
rtibia -4.56404
rfoot -8.30345 -26.5852
rtoes -23.563
lfemur -2.45262 -25.5573 -26.6004
ltibia -0.0151115
lfoot -31.2062 0.115536
ltoes -12.3269
126
root -26.2008 16.3341 4.92912 -24.154 83.403 -33.1823
lowerback 6.18442 1.20251 2.27252
upperback -10.2253 2.36918 0.893749
thorax -14.6986 1.05874 -0.753122
lowerneck -14.8776 2.19733 4.29742
upperneck 44.3606 5.1252 -0.986105
head 19.9825 3.45028 0.0861425
rclavicle 2.60905e-015 2.18663e-015
rhumerus -48.8772 22.2212 -89.6654
rradius 38.4781
rwrist -10.7293
rhand -25.5517 -21.1316
rfingers 7.12502
rthumb 0.978689 -51.1092
lclavicle 2.60905e-015 2.18663e-015
lhumerus -37.6004 -5.65757 74.8611
lradius 31.7073
lwrist -16.7669
lhand -25.7375 32.4917
lfingers 7.12502
lthumb 0.799228 62.47
rfemur 0.237089 24.7414 35.3348
rtibia -5.22395
rfoot -8.61712 -28.232
rtoes -23.4617
lfemur -1.99544 -27.4086 -26.7473
ltibia -1.30122
lfoot -32.9117 0.583867
ltoes -11.4176
127
root -26.212 16.3305 4.92055 -23.2982 83.3843 -32.6515
lowerback 6.1975 1.23818 2.23013
upperback -10.2151 2.40631 0.855436
thorax -14.693 1.07769 -0.77899
lowerneck -14.8212 2.14098 4.25657
upperneck 44.2445 5.06341 -1.05767
head 19.8848 3.40433 0.038514
rclavicle -9.60378e-015 6.95746e-015
rhumerus -48.1617 22.3625 -89.6939
rradius 38.5616
rwrist -10.1436
rhand -25.6881 -21.265
rfingers 7.12502
rthumb 0.846987 -51.243
lclavicle -9.60378e-015 6.95746e-015
lhumerus -36.7855 -5.99899 75.6538
lradius 32.6268
lwrist -16.1623
lhand -25.5417 32.859
lfingers 7.12502
lthumb 0.988339 62.8364
rfemur 0.269882 26.3169 35.263
rtibia -5.70403
rfoot -8.93671 -29.6435
rtoes -23.3599
lfemur -1.49518 -29.4359 -26.8974
ltibia -2.45755
lfoot -34.8324 1.79343
ltoes -11.7173
128
root -26.2225 16.3342 4.91086 -22.5936 83.2922 -32.2503
lowerback 6.19099 1.28643 2.26076
upperback -10.169 2.4682 0.830087
thorax -14.6286 1.10156 -0.834305
lowerneck -14.8166 2.09216 4.1889
upperneck 44.1005 5.00859 -1.12421
head 19.7829 3.35358 -0.000108445
rclavicle -6.83322e-016 -1.99779e-014
rhumerus -47.5283 22.5967 -89.7893
rradius 38.8277
rwrist -9.86287
rhand -25.7586 -21.3183
rfingers 7.12502
rthumb 0.778896 -51.2967
lclavicle -6.83322e-016 -1.99779e-014
lhumerus -36.1818 -6.36406 76.5347
lradius 33.8574
lwrist -15.2427
lhand -25.4578 33.3515
lfingers 7.12502
lthumb 1.06939 63.3286
rfemur 0.267512 27.7603 35.2136
rtibia -6.10596
rfoot -9.33735 -30.8812
rtoes -23.0146
lfemur -0.974854 -31.6312 -27.0161
ltibia -3.49779
lfoot -37.0077 2.79003
ltoes -12.0595
129
root -26.2325 16.3435 4.90082 -22.1796 83.1486 -32.1433
lowerback 6.143 1.33793 2.35314
upperback -10.1079 2.54287 0.823959
thorax -14.5178 1.12708 -0.903244
lowerneck -14.8353 2.05114 4.10673
upperneck 43.9492 4.96316 -1.18206
head 19.6831 3.30388 -0.029382
rclavicle -3.97569e-015 -2.10712e-014
rhumerus -47.0001 22.9855 -89.9734
rradius 39.2678
rwrist -9.91053
rhand -25.7742 -21.2204
rfingers 7.12502
rthumb 0.763793 -51.1988
lclavicle -3.97569e-015 -2.10712e-014
lhumerus -35.7977 -6.82815 77.5229
lradius 35.3269
lwrist -14.0151
lhand -25.586 33.846
lfingers 7.12502
lthumb 0.945568 63.8236
rfemur 0.269898 27.9636 35.2076
rtibia -6.67389
rfoot -9.56027 -30.8956
rtoes -22.0675
lfemur -0.514973 -33.8785 -27.057
ltibia -4.38665
lfoot -39.3135 3.67598
ltoes -12.6407
130
root -26.2425 16.3555 4.89145 -22.1129 82.9964 -32.3955
lowerback 6.05565 1.37918 2.48918
upperback -10.0343 2.60908 0.834315
thorax -14.3664 1.14613 -0.974859
lowerneck -14.9116 2.02548 4.01236
upperneck 43.8002 4.93326 -1.22296
head 19.6019 3.2585 -0.0434677
rclavicle 8.3179e-015 1.29707e-014
rhumerus -46.5535 23.5447 -90.2299
rradius 39.8693
rwrist -10.2199
rhand -25.7463 -21.0031
rfingers 7.12502
rthumb 0.790775 -50.9814
lclavicle 8.3179e-015 1.29707e-014
lhumerus -35.5937 -7.43829 78.6095
lradius 36.9458
lwrist -12.5426
lhand -25.9182 34.15
lfingers 7.12502
lthumb 0.624724 64.1288
rfemur 0.323223 28.1604 35.2605
rtibia -7.32398
rfoot -9.98171 -30.9033
rtoes -20.492
lfemur -0.204477 -35.9488 -26.9813
ltibia -5.09357
lfoot -41.4579 4.5528
ltoes -13.4978
131
root -26.2526 16.3665 4.88355 -22.3674 82.8795 -32.976
lowerback 5.93983 1.40232 2.62181
upperback -9.9853 2.65367 0.861636
thorax -14.2284 1.1575 -1.02136
lowerneck -14.9566 2.0031 3.92805
upperneck 43.676 4.9133 -1.26147
head 19.5294 3.22177 -0.0555569
rclavicle 3.31101e-015 -1.83379e-014
rhumerus -46.2681 24.2385 -90.5492
rradius 40.626
rwrist -10.6685
rhand -25.6705 -20.7776
rfingers 7.12502
rthumb 0.864018 -50.7556
lclavicle 3.31101e-015 -1.83379e-014
lhumerus -35.6242 -8.22647 79.7948
lradius 38.6435
lwrist -10.9557
lhand -26.3304 34.1603
lfingers 7.12502
lthumb 0.226664 64.1399
rfemur 0.33561 28.3174 35.3372
rtibia -7.95126
rfoot -9.95583 -31.0312
rtoes -20.4074
lfemur -0.121861 -37.5377 -26.767
ltibia -5.60647
lfoot -43.0717 5.42036
ltoes -14.5178
132
root -26.2624 16.3734 4.87687 -22.8266 82.8338 -33.7505
lowerback 5.8219 1.40367 2.71966
upperback -9.97046 2.66799 0.896093
thorax -14.1332 1.15897 -1.03595
lowerneck -14.9505 1.97693 3.86134
upperneck 43.5802 4.89459 -1.30322
head 19.4624 3.19181 -0.0717741
rclavicle 1.16165e-014 1.49089e-016
rhumerus -46.1508 25.0076 -90.8992
rradius 41.5063
rwrist -11.111
rhand -25.5021 -20.6592
rfingers 7.12502
rthumb 1.02668 -50.6365
lclavicle 1.16165e-014 1.49089e-016
lhumerus -35.8537 -9.15034 81.0493
lradius 40.3097
lwrist -9.43837
lhand -26.6465 33.8737
lfingers 7.12502
lthumb -0.0786253 63.8534
rfemur 0.395628 28.3978 35.4147
rtibia -8.62649
rfoot -9.89954 -31.1497
rtoes -20.6316
lfemur -0.292039 -38.4014 -26.4479
ltibia -5.93381
lfoot -43.8802 6.16256
ltoes -15.5448
